<?xml version="1.0"?>
<svg xmlns="http://www.w3.org/2000/svg" viewBox="0 0 512 512" fill="#1e69ff" width="512" height="512"><g id="outline"><path d="M466,104H328V72a56.063,56.063,0,0,0-56-56H80A56.063,56.063,0,0,0,24,72v8a8,8,0,0,0,8,8H72v16H46a30.034,30.034,0,0,0-30,30V386a30.034,30.034,0,0,0,30,30H207.165A40.2,40.2,0,0,1,192,440l-10.667,8H176a16.019,16.019,0,0,0-16,16v24a8,8,0,0,0,8,8H344a8,8,0,0,0,8-8V464a16.019,16.019,0,0,0-16-16h-5.333L320,440a40.2,40.2,0,0,1-15.165-24H466a30.034,30.034,0,0,0,30-30V134A30.034,30.034,0,0,0,466,104Zm0,16a14.015,14.015,0,0,1,14,14V352H448V136a8,8,0,0,0-8-8H328v-8ZM120,168h48v32H120Zm128-48h32v32H248Zm-16,32H184V120h48Zm48-48H248V72h32Zm-48,0H184V72h48Zm-64,0H120V72h48Zm0,16v32H120V120Zm16,48h48v32H184Zm64,0h32v32H248Zm48-24H432V352H296Zm16-72v56H296V64a8,8,0,0,0-8-8H112a8,8,0,0,0-8,8V208a8,8,0,0,0,8,8H280V352H256V280c0-.015,0-.03,0-.045a7.993,7.993,0,0,0-.568-2.926l-16-40a8,8,0,0,0-14.856,0l-16,40a7.993,7.993,0,0,0-.568,2.926c0,.015,0,.03,0,.045v72H165.185A71.96,71.96,0,0,0,88,231.528V32H272A40.045,40.045,0,0,1,312,72ZM224,288h16v64H224Zm3.816-16L232,261.541,236.184,272ZM64,296a56,56,0,1,1,56,56A56.063,56.063,0,0,1,64,296ZM40,72A40.071,40.071,0,0,1,72,32.8V72Zm6,48H72V242.392A71.877,71.877,0,0,0,74.815,352H32V134A14.015,14.015,0,0,1,46,120ZM336,480H176l-.007-16H336Zm-31.182-32H207.182a56.423,56.423,0,0,0,16.235-32h65.166A56.423,56.423,0,0,0,304.818,448ZM466,400H46a14.015,14.015,0,0,1-14-14V368H480v18A14.015,14.015,0,0,1,466,400Z"/><path d="M129.276,291.073,114.605,287.4a3.438,3.438,0,0,1-.7-6.411,13.7,13.7,0,0,1,12.2,0l6.322,3.161a8,8,0,1,0,7.156-14.31l-6.323-3.161A29.277,29.277,0,0,0,128,264.671V253H112v11.671a29.277,29.277,0,0,0-5.255,2.013,19.438,19.438,0,0,0,3.979,36.243L125.4,306.6a3.438,3.438,0,0,1,.7,6.411,13.707,13.707,0,0,1-12.2,0l-6.322-3.161a8,8,0,1,0-7.156,14.31l6.323,3.161A29.277,29.277,0,0,0,112,329.329V341h16V329.329a29.277,29.277,0,0,0,5.255-2.013,19.438,19.438,0,0,0-3.979-36.243Z"/><path d="M320,216h88a8,8,0,0,0,8-8V168a8,8,0,0,0-8-8H320a8,8,0,0,0-8,8v40A8,8,0,0,0,320,216Zm80-16H328V176h72Z"/><path d="M320,280h32a8,8,0,0,0,8-8V240a8,8,0,0,0-8-8H320a8,8,0,0,0-8,8v32A8,8,0,0,0,320,280Zm24-16H328V248h16Z"/><path d="M352,336a8,8,0,0,0,8-8V296a8,8,0,0,0-8-8H320a8,8,0,0,0-8,8v32a8,8,0,0,0,8,8Zm-8-16H328V304h16Z"/><path d="M408,288H376a8,8,0,0,0-8,8v32a8,8,0,0,0,8,8h32a8,8,0,0,0,8-8V296A8,8,0,0,0,408,288Zm-8,32H384V304h16Z"/><path d="M408,232H376a8,8,0,0,0-8,8v32a8,8,0,0,0,8,8h32a8,8,0,0,0,8-8V240A8,8,0,0,0,408,232Zm-8,32H384V248h16Z"/></g></svg>
