<?xml version="1.0"?>
<svg xmlns="http://www.w3.org/2000/svg" viewBox="0 0 64 64" width="512" height="512"><g id="money_&#xB7;_ecommerce_&#xB7;_shopping_&#xB7;_cart_&#xB7;_global" data-name="money &#xB7; ecommerce &#xB7; shopping &#xB7; cart &#xB7; global"><path d="M32,27A23.016,23.016,0,0,0,12.07,61.5a1,1,0,0,0,.87.5H51.06a.976.976,0,0,0,.86-.5A23,23,0,0,0,32,27ZM13.54,40h6.71a38.723,38.723,0,0,0-1.24,9H11.05A20.786,20.786,0,0,1,13.54,40Zm-.01,20a20.923,20.923,0,0,1-2.5-9h8.01a38.176,38.176,0,0,0,1.26,9Zm1.26-22a21.078,21.078,0,0,1,10.63-7.93A20.962,20.962,0,0,0,20.85,38ZM31,60H22.35a35.787,35.787,0,0,1-1.32-9H31Zm0-11H21.03a35.6,35.6,0,0,1,1.35-9H31Zm0-11H23.05c1.83-4.9,4.71-8.31,7.95-8.9ZM52.95,49H44.99a38.723,38.723,0,0,0-1.24-9h6.71A20.786,20.786,0,0,1,52.95,49ZM33,29.1c3.24.59,6.12,4,7.95,8.9H33ZM41.65,60H33V51h9.97A35.787,35.787,0,0,1,41.65,60ZM33,49V40h8.62a35.6,35.6,0,0,1,1.35,9Zm5.58-18.93A21.078,21.078,0,0,1,49.21,38H43.15A20.962,20.962,0,0,0,38.58,30.07ZM50.47,60H43.7a38.176,38.176,0,0,0,1.26-9h8.01A20.923,20.923,0,0,1,50.47,60Z"/><circle cx="10" cy="23" r="2"/><circle cx="15" cy="23" r="2"/><path d="M18,13H9.133l-.141-1.124A1,1,0,0,0,8,11H6a1,1,0,0,0,0,2H7.117l.139,1.111,0,.029.748,5.984A1,1,0,0,0,9,21h7a1,1,0,0,0,.949-.684l2-6A1,1,0,0,0,18,13Zm-2.721,6h-5.4l-.5-4h7.23Z"/><path d="M19,8H5a3,3,0,0,0-3,3V25a3,3,0,0,0,3,3h5.586l4.707,4.707A1,1,0,0,0,17,32V28h2a3,3,0,0,0,3-3V11A3,3,0,0,0,19,8Zm1,17a1,1,0,0,1-1,1H16a1,1,0,0,0-1,1v2.586l-3.293-3.293A1,1,0,0,0,11,26H5a1,1,0,0,1-1-1V11a1,1,0,0,1,1-1H19a1,1,0,0,1,1,1Z"/><path d="M31,9h2a1,1,0,0,1,1,1,1,1,0,0,0,2,0,3,3,0,0,0-3-3V6a1,1,0,0,0-2,0V7a3,3,0,0,0,0,6h2a1,1,0,0,1,0,2H31a1,1,0,0,1-1-1,1,1,0,0,0-2,0,3,3,0,0,0,3,3v1a1,1,0,0,0,2,0V17a3,3,0,0,0,0-6H31a1,1,0,0,1,0-2Z"/><path d="M32,2a9.011,9.011,0,0,0-9,9c0,4.621,7.363,14.493,8.2,15.6a1,1,0,0,0,1.6,0c.84-1.11,8.2-10.982,8.2-15.6A9.01,9.01,0,0,0,32,2Zm0,22.314C29.5,20.844,25,13.992,25,11a7,7,0,0,1,14,0C39,13.992,34.5,20.844,32,24.314Z"/><path d="M59,7H45a3.009,3.009,0,0,0-3,3V25a3.009,3.009,0,0,0,3,3h2v4a.987.987,0,0,0,.62.92A.838.838,0,0,0,48,33a1.007,1.007,0,0,0,.71-.29L53.41,28H59a3.009,3.009,0,0,0,3-3V10A3.009,3.009,0,0,0,59,7Zm1,18a1,1,0,0,1-1,1H53a1.033,1.033,0,0,0-.71.29L49,29.59V27a1,1,0,0,0-1-1H45a1,1,0,0,1-1-1V10a1,1,0,0,1,1-1H59a1,1,0,0,1,1,1Z"/><path d="M56,15H55V13a3,3,0,0,0-6,0v2H48a1,1,0,0,0-1,1v6a3.009,3.009,0,0,0,3,3h4a3.009,3.009,0,0,0,3-3V16A1,1,0,0,0,56,15Zm-5-2a1,1,0,0,1,2,0v2H51Zm4,9a1,1,0,0,1-1,1H50a1,1,0,0,1-1-1V17h6Z"/></g></svg>
